<svg width="512" height="352" viewBox="0 0 512 352" fill="none" xmlns="http://www.w3.org/2000/svg">
<path d="M396 352H136C99.56 352 65.64 339.43 40.49 316.59C14.38 292.88 0 260 0 224C0 187.42 13.39 155.88 38.72 132.78C58.65 114.59 85.84 102.22 116.1 97.41C125.556 72.726 141.114 50.8413 161.32 33.8C187.76 11.69 220.5 -8.70239e-06 256 -8.70239e-06C295.933 -0.173794 334.363 15.214 363.14 42.9C390.2 68.96 407.73 104.18 414.25 145.36C463.56 152.66 512 186.15 512 248C512 281.39 499.76 308.78 476.59 327.23C456.23 343.43 428.37 352 396 352Z" fill="#EEEEEE"/>
</svg>
