<svg width="223" height="223" viewBox="0 0 223 223" fill="none" xmlns="http://www.w3.org/2000/svg">
<path fill-rule="evenodd" clip-rule="evenodd" d="M130.083 18.5833C130.084 16.5407 129.412 14.5547 128.171 12.9324C126.93 11.3102 125.189 10.1422 123.217 9.60902C121.245 9.07588 119.153 9.20733 117.263 9.98304C115.373 10.7588 113.792 12.1355 112.764 13.9003L47.722 125.4C46.898 126.812 46.4612 128.417 46.4556 130.052C46.4501 131.687 46.876 133.294 47.6904 134.712C48.5048 136.129 49.6788 137.307 51.0939 138.126C52.509 138.945 54.1151 139.375 55.75 139.375H92.9167V204.417C92.9156 206.459 93.5877 208.445 94.8289 210.068C96.0701 211.69 97.8113 212.858 99.7831 213.391C101.755 213.924 103.847 213.793 105.737 213.017C107.627 212.241 109.208 210.864 110.236 209.1L175.278 97.5996C176.102 96.1876 176.539 94.5831 176.544 92.9482C176.55 91.3133 176.124 89.7059 175.31 88.2882C174.495 86.8706 173.321 85.693 171.906 84.8742C170.491 84.0554 168.885 83.6245 167.25 83.625H130.083V18.5833Z" fill="#EEEEEE"/>
</svg>
