<svg width="512" height="512" viewBox="0 0 512 512" fill="none" xmlns="http://www.w3.org/2000/svg">
<path d="M114.61 162.85C117.952 162.332 121.046 160.772 123.45 158.393C125.854 156.014 127.446 152.937 128 149.6C140.09 76.17 193.63 32 256 32C313.93 32 352.62 69.75 368.2 109.74C369.201 112.303 370.853 114.561 372.992 116.292C375.131 118.023 377.684 119.166 380.4 119.61C430.4 127.76 472 161.15 472 219.2C472 278.6 423.4 320 364 320H130C80.5 320 40 295.3 40 240.8C40 192.33 78.67 168.58 114.61 162.85Z" stroke="#EEEEEE" stroke-width="32" stroke-linejoin="round"/>
<path d="M144 384L112 432M224 384L160 480M304 384L272 432M384 384L320 480" stroke="#EEEEEE" stroke-width="32" stroke-linecap="round" stroke-linejoin="round"/>
</svg>
