<svg width="263" height="263" viewBox="0 0 263 263" fill="none" xmlns="http://www.w3.org/2000/svg">
<path d="M32.875 76.7083L71.2292 98.625M71.2292 98.625L131.5 131.5M71.2292 98.625L32.875 109.583M71.2292 98.625L65.75 60.2708M230.125 186.292L191.771 164.375M191.771 164.375L131.5 131.5M191.771 164.375L197.25 202.729M191.771 164.375L230.125 153.417M131.5 131.5L71.2292 164.375M131.5 131.5V54.7916M131.5 131.5V202.729M131.5 131.5L191.771 98.625M71.2292 164.375L32.875 186.292M71.2292 164.375L32.875 153.417M71.2292 164.375L65.75 202.729M131.5 54.7916V21.9166M131.5 54.7916L104.104 43.8333M131.5 54.7916L158.896 43.8333M131.5 202.729V241.083M131.5 202.729L158.896 219.167M131.5 202.729L104.104 219.167M191.771 98.625L230.125 76.7083M191.771 98.625L230.125 109.583M191.771 98.625L197.25 60.2708" stroke="#EEEEEE" stroke-width="9" stroke-linecap="round" stroke-linejoin="round"/>
</svg>
