<svg width="324" height="323" viewBox="0 0 324 323" fill="none" xmlns="http://www.w3.org/2000/svg">
<path d="M162.5 0.300003C165.172 0.300003 167.735 1.36148 169.624 3.2509C171.514 5.14033 172.575 7.70295 172.575 10.375V30.525C172.575 33.1971 171.514 35.7597 169.624 37.6491C167.735 39.5385 165.172 40.6 162.5 40.6C159.828 40.6 157.266 39.5385 155.376 37.6491C153.487 35.7597 152.425 33.1971 152.425 30.525V10.375C152.425 7.70295 153.487 5.14033 155.376 3.2509C157.266 1.36148 159.828 0.300003 162.5 0.300003ZM243.1 161.5C243.1 182.876 234.608 203.377 219.493 218.493C204.378 233.608 183.877 242.1 162.5 242.1C141.124 242.1 120.623 233.608 105.507 218.493C90.392 203.377 81.9002 182.876 81.9002 161.5C81.9002 140.124 90.392 119.623 105.507 104.507C120.623 89.3918 141.124 80.9 162.5 80.9C183.877 80.9 204.378 89.3918 219.493 104.507C234.608 119.623 243.1 140.124 243.1 161.5ZM313.625 171.575C316.297 171.575 318.86 170.514 320.749 168.624C322.639 166.735 323.7 164.172 323.7 161.5C323.7 158.828 322.639 156.265 320.749 154.376C318.86 152.486 316.297 151.425 313.625 151.425H293.475C290.803 151.425 288.241 152.486 286.351 154.376C284.462 156.265 283.4 158.828 283.4 161.5C283.4 164.172 284.462 166.735 286.351 168.624C288.241 170.514 290.803 171.575 293.475 171.575H313.625ZM162.5 282.4C165.172 282.4 167.735 283.461 169.624 285.351C171.514 287.24 172.575 289.803 172.575 292.475V312.625C172.575 315.297 171.514 317.86 169.624 319.749C167.735 321.639 165.172 322.7 162.5 322.7C159.828 322.7 157.266 321.639 155.376 319.749C153.487 317.86 152.425 315.297 152.425 312.625V292.475C152.425 289.803 153.487 287.24 155.376 285.351C157.266 283.461 159.828 282.4 162.5 282.4ZM31.5252 171.575C34.1973 171.575 36.7599 170.514 38.6493 168.624C40.5388 166.735 41.6002 164.172 41.6002 161.5C41.6002 158.828 40.5388 156.265 38.6493 154.376C36.7599 152.486 34.1973 151.425 31.5252 151.425H10.6297C7.95763 151.425 5.39501 152.486 3.50558 154.376C1.61615 156.265 0.554688 158.828 0.554688 161.5C0.554688 164.172 1.61615 166.735 3.50558 168.624C5.39501 170.514 7.95763 171.575 10.6297 171.575H31.5252ZM44.5421 43.5419C45.478 42.6037 46.5898 41.8592 47.8138 41.3513C49.0378 40.8434 50.35 40.582 51.6752 40.582C53.0004 40.582 54.3126 40.8434 55.5367 41.3513C56.7607 41.8592 57.8725 42.6037 58.8083 43.5419L78.9583 63.6919C80.8502 65.5837 81.913 68.1496 81.913 70.825C81.913 73.5004 80.8502 76.0663 78.9583 77.9581C77.0665 79.8499 74.5007 80.9127 71.8252 80.9127C69.1498 80.9127 66.5839 79.8499 64.6921 77.9581L44.5421 57.8081C43.6039 56.8722 42.8595 55.7604 42.3516 54.5364C41.8437 53.3124 41.5822 52.0002 41.5822 50.675C41.5822 49.3498 41.8437 48.0376 42.3516 46.8136C42.8595 45.5896 43.6039 44.4778 44.5421 43.5419ZM58.8083 279.458C56.9165 281.35 54.3507 282.413 51.6752 282.413C48.9998 282.413 46.4339 281.35 44.5421 279.458C42.6503 277.566 41.5875 275 41.5875 272.325C41.5875 269.65 42.6503 267.084 44.5421 265.192L64.6921 245.042C66.5839 243.15 69.1498 242.087 71.8252 242.087C74.5007 242.087 77.0665 243.15 78.9583 245.042C80.8502 246.934 81.913 249.5 81.913 252.175C81.913 254.85 80.8502 257.416 78.9583 259.308L58.8083 279.458ZM280.458 43.5419C279.522 42.6037 278.411 41.8592 277.187 41.3513C275.963 40.8434 274.65 40.582 273.325 40.582C272 40.582 270.688 40.8434 269.464 41.3513C268.24 41.8592 267.128 42.6037 266.192 43.5419L246.042 63.6919C244.15 65.5837 243.088 68.1496 243.088 70.825C243.088 73.5004 244.15 76.0663 246.042 77.9581C247.934 79.8499 250.5 80.9127 253.175 80.9127C255.851 80.9127 258.417 79.8499 260.308 77.9581L280.458 57.8081C281.397 56.8722 282.141 55.7604 282.649 54.5364C283.157 53.3124 283.418 52.0002 283.418 50.675C283.418 49.3498 283.157 48.0376 282.649 46.8136C282.141 45.5896 281.397 44.4778 280.458 43.5419ZM266.192 279.458C268.084 281.35 270.65 282.413 273.325 282.413C276.001 282.413 278.567 281.35 280.458 279.458C282.35 277.566 283.413 275 283.413 272.325C283.413 269.65 282.35 267.084 280.458 265.192L260.308 245.042C258.417 243.15 255.851 242.087 253.175 242.087C250.5 242.087 247.934 243.15 246.042 245.042C244.15 246.934 243.088 249.5 243.088 252.175C243.088 254.85 244.15 257.416 246.042 259.308L266.192 279.458Z" fill="#EEEEEE"/>
</svg>
